<?xml version="1.0" encoding="UTF-8" standalone="no" ?>
<!DOCTYPE svg PUBLIC "-//W3C//DTD SVG 1.1//EN" "http://www.w3.org/Graphics/SVG/1.1/DTD/svg11.dtd">
<svg xmlns="http://www.w3.org/2000/svg" xmlns:xlink="http://www.w3.org/1999/xlink" version="1.1" width="500" height="500" viewBox="0 0 500 500" xml:space="preserve">
<desc>Created with Fabric.js 3.6.3</desc>
<defs>
</defs>
<g transform="matrix(1.5267707692954429 0 0 1.5267707692954429 252.5 208.46876708071295)"  >
<g style=""   >
		<g transform="matrix(1 0 0 1 -1.5 0.8999999999999986)"  >
<circle style="stroke: none; stroke-width: 1; stroke-dasharray: none; stroke-linecap: butt; stroke-dashoffset: 0; stroke-linejoin: miter; stroke-miterlimit: 4; fill: rgb(26,109,175); fill-rule: nonzero; opacity: 1;"  cx="0" cy="0" r="55.6" />
</g>
		<g transform="matrix(1 0 0 1 -12.200000000000003 48.05)"  >
<line style="stroke: rgb(253,205,18); stroke-width: 2; stroke-dasharray: none; stroke-linecap: round; stroke-dashoffset: 0; stroke-linejoin: round; stroke-miterlimit: 10; fill: none; fill-rule: nonzero; opacity: 1;"  x1="-10.700000000000003" y1="9.550000000000004" x2="10.700000000000003" y2="-9.550000000000004" />
</g>
		<g transform="matrix(1 0 0 1 3.899999999999988 -48.650000000000006)"  >
<line style="stroke: rgb(253,205,18); stroke-width: 2; stroke-dasharray: none; stroke-linecap: round; stroke-dashoffset: 0; stroke-linejoin: round; stroke-miterlimit: 10; fill: none; fill-rule: nonzero; opacity: 1;"  x1="-11.2" y1="8.95" x2="11.2" y2="-8.95" />
</g>
		<g transform="matrix(1 0 0 1 46.45 3.949999999999992)"  >
<line style="stroke: rgb(253,205,18); stroke-width: 2; stroke-dasharray: none; stroke-linecap: round; stroke-dashoffset: 0; stroke-linejoin: round; stroke-miterlimit: 10; fill: none; fill-rule: nonzero; opacity: 1;"  x1="-11.25" y1="8.95" x2="11.25" y2="-8.95" />
</g>
		<g transform="matrix(1 0 0 1 45.55 -13.25)"  >
<line style="stroke: rgb(244,94,172); stroke-width: 2; stroke-dasharray: none; stroke-linecap: round; stroke-dashoffset: 0; stroke-linejoin: round; stroke-miterlimit: 10; fill: none; fill-rule: nonzero; opacity: 1;"  x1="-9.950000000000003" y1="8.850000000000001" x2="9.950000000000003" y2="-8.850000000000001" />
</g>
		<g transform="matrix(1 0 0 1 -37.45 43.849999999999994)"  >
<line style="stroke: rgb(26,109,175); stroke-width: 2; stroke-dasharray: none; stroke-linecap: round; stroke-dashoffset: 0; stroke-linejoin: round; stroke-miterlimit: 10; fill: none; fill-rule: nonzero; opacity: 1;"  x1="-9.95" y1="8.850000000000001" x2="9.95" y2="-8.850000000000001" />
</g>
		<g transform="matrix(1 0 0 1 -47.400000000000006 11.800000000000008)"  >
<line style="stroke: rgb(244,94,172); stroke-width: 2; stroke-dasharray: none; stroke-linecap: round; stroke-dashoffset: 0; stroke-linejoin: round; stroke-miterlimit: 10; fill: none; fill-rule: nonzero; opacity: 1;"  x1="-10.3" y1="8.500000000000004" x2="10.3" y2="-8.500000000000004" />
</g>
		<g transform="matrix(1 0 0 1 27.45000000000001 -44.150000000000006)"  >
<line style="stroke: rgb(244,94,172); stroke-width: 2; stroke-dasharray: none; stroke-linecap: round; stroke-dashoffset: 0; stroke-linejoin: round; stroke-miterlimit: 10; fill: none; fill-rule: nonzero; opacity: 1;"  x1="-10.449999999999996" y1="8.25" x2="10.449999999999996" y2="-8.25" />
</g>
		<g transform="matrix(1 0 0 1 -44 -33.300000000000004)"  >
<line style="stroke: rgb(244,94,172); stroke-width: 2; stroke-dasharray: none; stroke-linecap: round; stroke-dashoffset: 0; stroke-linejoin: round; stroke-miterlimit: 10; fill: none; fill-rule: nonzero; opacity: 1;"  x1="-10.2" y1="8.6" x2="10.2" y2="-8.6" />
</g>
		<g transform="matrix(1 0 0 1 -34.7 14.550000000000008)"  >
<line style="stroke: rgb(37,171,190); stroke-width: 2; stroke-dasharray: none; stroke-linecap: round; stroke-dashoffset: 0; stroke-linejoin: round; stroke-miterlimit: 10; fill: none; fill-rule: nonzero; opacity: 1;"  x1="-20.6" y1="18.05" x2="20.6" y2="-18.05" />
</g>
		<g transform="matrix(1 0 0 1 36.74999999999998 31.049999999999997)"  >
<line style="stroke: rgb(37,171,190); stroke-width: 2; stroke-dasharray: none; stroke-linecap: round; stroke-dashoffset: 0; stroke-linejoin: round; stroke-miterlimit: 10; fill: none; fill-rule: nonzero; opacity: 1;"  x1="-20.65" y1="18.050000000000004" x2="20.65" y2="-18.050000000000004" />
</g>
		<g transform="matrix(1 0 0 1 26.85000000000001 33.749999999999986)"  >
<path style="stroke: none; stroke-width: 1; stroke-dasharray: none; stroke-linecap: butt; stroke-dashoffset: 0; stroke-linejoin: miter; stroke-miterlimit: 4; fill: rgb(37,171,190); fill-rule: nonzero; opacity: 1;"  transform=" translate(-85.55000000000001, -92.35)" d="M 111.9 69.7 L 59.2 115 C 85.5 114.1 107.2 94.9 111.9 69.7 z" stroke-linecap="round" />
</g>
		<g transform="matrix(1 0 0 1 21.450000000000003 27.9)"  >
<path style="stroke: none; stroke-width: 1; stroke-dasharray: none; stroke-linecap: butt; stroke-dashoffset: 0; stroke-linejoin: miter; stroke-miterlimit: 4; fill: rgb(26,109,175); fill-rule: nonzero; opacity: 1;"  transform=" translate(-80.15, -86.5)" d="M 112.8 57.8 l -65.3 56.5 c 3.2 0.6 6.4 0.9 9.7 0.9 c 0.7 0 1.3 0 2 -0.1 l 52.6 -45.3 c 0.6 -3.3 1 -6.8 1 -10.3 C 112.8 58.9 112.8 58.3 112.8 57.8 z" stroke-linecap="round" />
</g>
		<g transform="matrix(1 0 0 1 17.10000000000001 21.70000000000001)"  >
<path style="stroke: none; stroke-width: 1; stroke-dasharray: none; stroke-linecap: butt; stroke-dashoffset: 0; stroke-linejoin: miter; stroke-miterlimit: 4; fill: rgb(253,205,18); fill-rule: nonzero; opacity: 1;"  transform=" translate(-75.80000000000001, -80.30000000000001)" d="M 38.9 112 c 3 1 6.1 1.8 9.3 2.4 l 64.5 -56.5 c -0.1 -4 -0.7 -7.9 -1.6 -11.7 L 38.9 112 z" stroke-linecap="round" />
</g>
		<g transform="matrix(1 0 0 1 8.849999999999994 12.999999999999993)"  >
<path style="stroke: none; stroke-width: 1; stroke-dasharray: none; stroke-linecap: butt; stroke-dashoffset: 0; stroke-linejoin: miter; stroke-miterlimit: 4; fill: rgb(244,94,172); fill-rule: nonzero; opacity: 1;"  transform=" translate(-67.55, -71.6)" d="M 105.1 31.2 L 24 104.1 c 4.5 3.4 9.5 6 14.9 7.9 l 72.2 -65.9 C 109.9 40.8 107.8 35.8 105.1 31.2 z" stroke-linecap="round" />
</g>
		<g transform="matrix(1 0 0 1 -27.000000000000004 -32.150000000000006)"  >
<path style="stroke: none; stroke-width: 1; stroke-dasharray: none; stroke-linecap: butt; stroke-dashoffset: 0; stroke-linejoin: miter; stroke-miterlimit: 4; fill: rgb(244,94,172); fill-rule: nonzero; opacity: 1;"  transform=" translate(-31.7, -26.45)" d="M 57.2 3.9 C 30.1 3.9 7.5 23.3 2.6 49 L 60.8 4 C 59.6 3.9 58.4 3.9 57.2 3.9 z" stroke-linecap="round" />
</g>
		<g transform="matrix(1 0 0 1 -0.45000000000000284 4)"  >
<path style="stroke: none; stroke-width: 1; stroke-dasharray: none; stroke-linecap: butt; stroke-dashoffset: 0; stroke-linejoin: miter; stroke-miterlimit: 4; fill: rgb(26,109,175); fill-rule: nonzero; opacity: 1;"  transform=" translate(-58.25, -62.6)" d="M 97.2 20.9 l -85.9 70 c 3.5 5.2 7.9 9.7 13 13.4 l 80.9 -73 C 102.9 27.5 100.2 24 97.2 20.9 z" stroke-linecap="round" />
</g>
		<g transform="matrix(1 0 0 1 -15.949999999999996 -23.3)"  >
<path style="stroke: none; stroke-width: 1; stroke-dasharray: none; stroke-linecap: butt; stroke-dashoffset: 0; stroke-linejoin: miter; stroke-miterlimit: 4; fill: rgb(26,109,175); fill-rule: nonzero; opacity: 1;"  transform=" translate(-42.75000000000001, -35.3)" d="M 68.9 5.1 l -67.1 52 l -0.1 0.1 c 0 0.8 -0.1 1.5 -0.1 2.3 c 0 2 0.1 4.1 0.3 6 l 82 -54.8 C 79.3 8.1 74.2 6.2 68.9 5.1 z" stroke-linecap="round" />
</g>
		<g transform="matrix(1 0 0 1 -7.350000000000001 -6.000000000000007)"  >
<path style="stroke: none; stroke-width: 1; stroke-dasharray: none; stroke-linecap: butt; stroke-dashoffset: 0; stroke-linejoin: miter; stroke-miterlimit: 4; fill: rgb(37,171,190); fill-rule: nonzero; opacity: 1;"  transform=" translate(-51.35, -52.599999999999994)" d="M 89.8 14.4 L 5.5 80 c 1.5 3.8 3.5 7.5 5.8 10.8 l 85.9 -70 C 94.9 18.5 92.5 16.4 89.8 14.4 z" stroke-linecap="round" />
</g>
		<g transform="matrix(1 0 0 1 -12.850000000000001 -13.250000000000007)"  >
<path style="stroke: none; stroke-width: 1; stroke-dasharray: none; stroke-linecap: butt; stroke-dashoffset: 0; stroke-linejoin: miter; stroke-miterlimit: 4; fill: rgb(244,94,172); fill-rule: nonzero; opacity: 1;"  transform=" translate(-45.85, -45.349999999999994)" d="M 83.9 10.7 l -82 54.8 c 0.5 5.1 1.8 9.9 3.6 14.5 l 84.3 -65.6 C 87.9 13.1 86 11.8 83.9 10.7 z" stroke-linecap="round" />
</g>
		<g transform="matrix(1 0 0 1 -22.75 -27.150000000000002)"  >
<path style="stroke: none; stroke-width: 1; stroke-dasharray: none; stroke-linecap: butt; stroke-dashoffset: 0; stroke-linejoin: miter; stroke-miterlimit: 4; fill: rgb(253,205,18); fill-rule: nonzero; opacity: 1;"  transform=" translate(-35.95, -31.45)" d="M 60 3.9 l -55.3 37 c -2 5.7 -3.1 11.7 -3.2 18.1 L 70.4 5.4 C 67 4.6 63.6 4.1 60 3.9 z" stroke-linecap="round" />
</g>
</g>
</g>
<g transform="matrix(1 0 0 1 250.49999994765594 379.1675779447036)" style=""  ><path fill="#ffffff" opacity="1" d="M-130.04 0.33L-130.04-0.22L-127.87-0.22L-127.87 2.21Q-128.80 2.89-130.20 2.89L-130.20 2.89Q-131.00 2.89-131.66 2.55Q-132.32 2.22-132.73 1.53Q-133.15 0.84-133.15-0.10L-133.15-0.10Q-133.15-1.40-132.26-2.24Q-131.38-3.08-130.10-3.08L-130.10-3.08Q-128.87-3.08-127.98-2.50L-127.98-2.50L-128.26-1.98Q-129.05-2.52-130.10-2.52L-130.10-2.52Q-131.18-2.52-131.83-1.84Q-132.48-1.16-132.48-0.10L-132.48-0.10Q-132.48 0.99-131.80 1.65Q-131.12 2.31-130.11 2.31L-130.11 2.31Q-129.19 2.31-128.49 1.91L-128.49 1.91L-128.49 0.33L-130.04 0.33Z"/><path fill="#ffffff" opacity="1" d="M-124.73 2.77L-124.73-2.97L-122.48-2.97Q-121.61-2.97-121.07-2.54Q-120.53-2.11-120.53-1.38L-120.53-1.38Q-120.53-0.87-120.88-0.46Q-121.22-0.04-121.86 0.12L-121.86 0.12L-120.12 2.77L-120.92 2.77L-122.53 0.24L-124.07 0.24L-124.07 2.77L-124.73 2.77ZM-122.61-2.40L-124.07-2.40L-124.07-0.33L-122.60-0.33Q-121.97-0.33-121.58-0.60Q-121.19-0.87-121.19-1.38L-121.19-1.38Q-121.19-2.40-122.61-2.40L-122.61-2.40Z"/><path fill="#ffffff" opacity="1" d="M-117.47 0.21L-117.47-2.97L-116.81-2.97L-116.81 0.28Q-116.81 1.29-116.35 1.81Q-115.90 2.32-115.09 2.32Q-114.27 2.32-113.82 1.81Q-113.36 1.29-113.36 0.28L-113.36 0.28L-113.36-2.97L-112.69-2.97L-112.69 0.21Q-112.69 1.56-113.33 2.22Q-113.96 2.89-115.09 2.89Q-116.22 2.89-116.84 2.23Q-117.47 1.56-117.47 0.21L-117.47 0.21Z"/><path fill="#ffffff" opacity="1" d="M-109.56 2.77L-109.56-2.97L-107.62-2.97Q-106.64-2.97-106.01-2.49Q-105.38-2.02-105.38-1.20L-105.38-1.20Q-105.38-0.35-106.00 0.12Q-106.62 0.60-107.62 0.60L-107.62 0.60L-108.90 0.60L-108.90 2.77L-109.56 2.77ZM-107.75-2.40L-108.90-2.40L-108.90 0.03L-107.75 0.03Q-106.04 0.03-106.04-1.20L-106.04-1.20Q-106.04-2.40-107.75-2.40L-107.75-2.40Z"/><path fill="#ffffff" opacity="1" d="M-101.46-1.85Q-102.16-1.19-102.16-0.10Q-102.16 1.00-101.46 1.66Q-100.75 2.32-99.75 2.32Q-98.74 2.32-98.04 1.66Q-97.34 1.00-97.34-0.10Q-97.34-1.19-98.04-1.85Q-98.74-2.52-99.75-2.52Q-100.75-2.52-101.46-1.85ZM-96.67-0.10L-96.67-0.10Q-96.67 1.22-97.55 2.05Q-98.43 2.89-99.75 2.89L-99.75 2.89Q-101.07 2.89-101.95 2.06Q-102.82 1.23-102.82-0.10L-102.82-0.10Q-102.82-1.41-101.94-2.25Q-101.06-3.08-99.75-3.08L-99.75-3.08Q-98.42-3.08-97.55-2.25Q-96.67-1.42-96.67-0.10Z"/><path fill="#ffffff" opacity="1" d=""/><path fill="#ffffff" opacity="1" d="M-89.08 2.77L-89.08-2.97L-86.99-2.97Q-85.50-2.97-84.69-2.22Q-83.89-1.48-83.89-0.13L-83.89-0.13Q-83.89 1.26-84.77 2.01Q-85.66 2.77-87.17 2.77L-87.17 2.77L-89.08 2.77ZM-86.99-2.40L-88.42-2.40L-88.42 2.20L-87.17 2.20Q-85.99 2.20-85.27 1.63Q-84.56 1.05-84.56-0.13L-84.56-0.13Q-84.56-2.40-86.99-2.40L-86.99-2.40Z"/><path fill="#ffffff" opacity="1" d="M-77.20 2.77L-80.93 2.77L-80.93-2.97L-77.33-2.97L-77.33-2.40L-80.27-2.40L-80.27-0.50L-77.63-0.50L-77.63 0.06L-80.27 0.06L-80.27 2.20L-77.20 2.20L-77.20 2.77Z"/><path fill="#ffffff" opacity="1" d="M-70.54-2.61L-70.54-2.61L-70.83-2.09Q-71.51-2.52-72.34-2.52L-72.34-2.52Q-72.96-2.52-73.26-2.25Q-73.56-1.98-73.56-1.61L-73.56-1.61Q-73.56-1.24-73.32-1.01Q-73.09-0.78-72.56-0.68L-72.56-0.68L-71.72-0.50Q-70.20-0.18-70.20 1.19L-70.20 1.19Q-70.20 1.92-70.77 2.40Q-71.34 2.89-72.40 2.89L-72.40 2.89Q-73.01 2.89-73.44 2.78Q-73.88 2.68-74.38 2.42L-74.38 2.42L-74.15 1.82Q-73.30 2.31-72.42 2.31L-72.42 2.31Q-71.60 2.31-71.23 2.00Q-70.85 1.70-70.85 1.20L-70.85 1.20Q-70.85 0.72-71.12 0.46Q-71.38 0.20-72.01 0.06L-72.01 0.06L-72.94-0.13Q-73.50-0.25-73.85-0.62Q-74.19-0.99-74.19-1.57L-74.19-1.57Q-74.19-2.24-73.70-2.66Q-73.21-3.08-72.34-3.08L-72.34-3.08Q-71.30-3.08-70.54-2.61Z"/><path fill="#ffffff" opacity="1" d="M-67.64 2.77L-65.16-2.97L-64.38-2.97L-61.91 2.77L-62.60 2.77L-63.43 0.84L-66.15 0.84L-66.96 2.77L-67.64 2.77ZM-64.72-2.29L-64.85-2.29L-65.92 0.29L-63.65 0.29L-64.72-2.29Z"/><path fill="#ffffff" opacity="1" d="M-59.08 2.77L-59.08-2.97L-56.83-2.97Q-55.96-2.97-55.42-2.54Q-54.88-2.11-54.88-1.38L-54.88-1.38Q-54.88-0.87-55.23-0.46Q-55.57-0.04-56.21 0.12L-56.21 0.12L-54.47 2.77L-55.27 2.77L-56.88 0.24L-58.42 0.24L-58.42 2.77L-59.08 2.77ZM-56.96-2.40L-58.42-2.40L-58.42-0.33L-56.95-0.33Q-56.32-0.33-55.93-0.60Q-55.54-0.87-55.54-1.38L-55.54-1.38Q-55.54-2.40-56.96-2.40L-56.96-2.40Z"/><path fill="#ffffff" opacity="1" d="M-51.60 2.77L-51.60-2.97L-49.35-2.97Q-48.48-2.97-47.94-2.54Q-47.40-2.11-47.40-1.38L-47.40-1.38Q-47.40-0.87-47.75-0.46Q-48.09-0.04-48.73 0.12L-48.73 0.12L-46.99 2.77L-47.79 2.77L-49.40 0.24L-50.94 0.24L-50.94 2.77L-51.60 2.77ZM-49.48-2.40L-50.94-2.40L-50.94-0.33L-49.47-0.33Q-48.84-0.33-48.45-0.60Q-48.06-0.87-48.06-1.38L-48.06-1.38Q-48.06-2.40-49.48-2.40L-49.48-2.40Z"/><path fill="#ffffff" opacity="1" d="M-43.24-1.85Q-43.94-1.19-43.94-0.10Q-43.94 1.00-43.24 1.66Q-42.54 2.32-41.53 2.32Q-40.53 2.32-39.82 1.66Q-39.12 1.00-39.12-0.10Q-39.12-1.19-39.82-1.85Q-40.53-2.52-41.53-2.52Q-42.54-2.52-43.24-1.85ZM-38.46-0.10L-38.46-0.10Q-38.46 1.22-39.34 2.05Q-40.22 2.89-41.53 2.89L-41.53 2.89Q-42.86 2.89-43.73 2.06Q-44.61 1.23-44.61-0.10L-44.61-0.10Q-44.61-1.41-43.73-2.25Q-42.85-3.08-41.53-3.08L-41.53-3.08Q-40.21-3.08-39.33-2.25Q-38.46-1.42-38.46-0.10Z"/><path fill="#ffffff" opacity="1" d="M-34.84-2.97L-34.84 2.20L-32.07 2.20L-32.07 2.77L-35.50 2.77L-35.50-2.97L-34.84-2.97Z"/><path fill="#ffffff" opacity="1" d="M-28.40-2.97L-28.40 2.20L-25.63 2.20L-25.63 2.77L-29.06 2.77L-29.06-2.97L-28.40-2.97Z"/><path fill="#ffffff" opacity="1" d="M-21.83-1.85Q-22.54-1.19-22.54-0.10Q-22.54 1.00-21.83 1.66Q-21.13 2.32-20.13 2.32Q-19.12 2.32-18.42 1.66Q-17.72 1.00-17.72-0.10Q-17.72-1.19-18.42-1.85Q-19.12-2.52-20.13-2.52Q-21.13-2.52-21.83-1.85ZM-17.05-0.10L-17.05-0.10Q-17.05 1.22-17.93 2.05Q-18.81 2.89-20.13 2.89L-20.13 2.89Q-21.45 2.89-22.33 2.06Q-23.20 1.23-23.20-0.10L-23.20-0.10Q-23.20-1.41-22.32-2.25Q-21.44-3.08-20.13-3.08L-20.13-3.08Q-18.80-3.08-17.93-2.25Q-17.05-1.42-17.05-0.10Z"/><path fill="#ffffff" opacity="1" d=""/><path fill="#ffffff" opacity="1" d="M-5.80-2.61L-5.80-2.61L-6.08-2.09Q-6.77-2.52-7.60-2.52L-7.60-2.52Q-8.22-2.52-8.52-2.25Q-8.82-1.98-8.82-1.61L-8.82-1.61Q-8.82-1.24-8.58-1.01Q-8.35-0.78-7.82-0.68L-7.82-0.68L-6.98-0.50Q-5.46-0.18-5.46 1.19L-5.46 1.19Q-5.46 1.92-6.03 2.40Q-6.60 2.89-7.66 2.89L-7.66 2.89Q-8.27 2.89-8.70 2.78Q-9.14 2.68-9.63 2.42L-9.63 2.42L-9.41 1.82Q-8.56 2.31-7.67 2.31L-7.67 2.31Q-6.86 2.31-6.49 2.00Q-6.11 1.70-6.11 1.20L-6.11 1.20Q-6.11 0.72-6.38 0.46Q-6.64 0.20-7.27 0.06L-7.27 0.06L-8.20-0.13Q-8.76-0.25-9.10-0.62Q-9.45-0.99-9.45-1.57L-9.45-1.57Q-9.45-2.24-8.96-2.66Q-8.47-3.08-7.60-3.08L-7.60-3.08Q-6.56-3.08-5.80-2.61Z"/><path fill="#ffffff" opacity="1" d="M-2.46 2.77L-2.46-2.97L-1.79-2.97L-1.79 2.77L-2.46 2.77Z"/><path fill="#ffffff" opacity="1" d="M5.04-2.61L5.04-2.61L4.76-2.09Q4.07-2.52 3.24-2.52L3.24-2.52Q2.62-2.52 2.32-2.25Q2.02-1.98 2.02-1.61L2.02-1.61Q2.02-1.24 2.26-1.01Q2.50-0.78 3.03-0.68L3.03-0.68L3.87-0.50Q5.39-0.18 5.39 1.19L5.39 1.19Q5.39 1.92 4.82 2.40Q4.25 2.89 3.19 2.89L3.19 2.89Q2.58 2.89 2.14 2.78Q1.70 2.68 1.21 2.42L1.21 2.42L1.44 1.82Q2.29 2.31 3.17 2.31L3.17 2.31Q3.98 2.31 4.36 2.00Q4.73 1.70 4.73 1.20L4.73 1.20Q4.73 0.72 4.47 0.46Q4.20 0.20 3.58 0.06L3.58 0.06L2.65-0.13Q2.08-0.25 1.74-0.62Q1.40-0.99 1.40-1.57L1.40-1.57Q1.40-2.24 1.89-2.66Q2.38-3.08 3.24-3.08L3.24-3.08Q4.28-3.08 5.04-2.61Z"/><path fill="#ffffff" opacity="1" d="M9.67-2.40L7.90-2.40L7.90-2.97L12.10-2.97L12.10-2.40L10.33-2.40L10.33 2.77L9.67 2.77L9.67-2.40Z"/><path fill="#ffffff" opacity="1" d="M18.78 2.77L15.06 2.77L15.06-2.97L18.65-2.97L18.65-2.40L15.72-2.40L15.72-0.50L18.36-0.50L18.36 0.06L15.72 0.06L15.72 2.20L18.78 2.20L18.78 2.77Z"/><path fill="#ffffff" opacity="1" d="M21.79 2.77L21.79-2.97L22.70-2.97L24.57-0.21L26.44-2.97L27.35-2.97L27.35 2.77L26.70 2.77L26.70-0.48L26.71-2.24L26.63-2.24L24.67 0.64L24.43 0.64L22.49-2.24L22.42-2.24L22.43-0.48L22.43 2.77L21.79 2.77Z"/><path fill="#ffffff" opacity="1" d="M30.18 2.77L32.66-2.97L33.43-2.97L35.91 2.77L35.21 2.77L34.39 0.84L31.66 0.84L30.86 2.77L30.18 2.77ZM33.09-2.29L32.97-2.29L31.89 0.29L34.16 0.29L33.09-2.29Z"/><path fill="#ffffff" opacity="1" d="M42.39-2.61L42.39-2.61L42.11-2.09Q41.42-2.52 40.59-2.52L40.59-2.52Q39.97-2.52 39.67-2.25Q39.37-1.98 39.37-1.61L39.37-1.61Q39.37-1.24 39.61-1.01Q39.85-0.78 40.38-0.68L40.38-0.68L41.21-0.50Q42.73-0.18 42.73 1.19L42.73 1.19Q42.73 1.92 42.16 2.40Q41.59 2.89 40.53 2.89L40.53 2.89Q39.93 2.89 39.49 2.78Q39.05 2.68 38.56 2.42L38.56 2.42L38.79 1.82Q39.63 2.31 40.52 2.31L40.52 2.31Q41.33 2.31 41.70 2.00Q42.08 1.70 42.08 1.20L42.08 1.20Q42.08 0.72 41.82 0.46Q41.55 0.20 40.92 0.06L40.92 0.06L40.00-0.13Q39.43-0.25 39.09-0.62Q38.74-0.99 38.74-1.57L38.74-1.57Q38.74-2.24 39.23-2.66Q39.72-3.08 40.59-3.08L40.59-3.08Q41.63-3.08 42.39-2.61Z"/><path fill="#ffffff" opacity="1" d=""/><path fill="#ffffff" opacity="1" d="M50.37 2.77L50.37-2.97L51.04-2.97L51.04 2.77L50.37 2.77Z"/><path fill="#ffffff" opacity="1" d="M54.21 2.77L54.21-2.97L54.92-2.97L58.89 1.99L58.86 0.23L58.86-2.97L59.49-2.97L59.49 2.77L58.75 2.77L54.78-2.22L54.84-0.18L54.84 2.77L54.21 2.77Z"/><path fill="#ffffff" opacity="1" d="M62.67 2.77L62.67-2.97L66.26-2.97L66.26-2.40L63.33-2.40L63.33-0.47L65.97-0.47L65.97 0.09L63.33 0.09L63.33 2.77L62.67 2.77Z"/><path fill="#ffffff" opacity="1" d="M70.14-1.85Q69.44-1.19 69.44-0.10Q69.44 1.00 70.14 1.66Q70.84 2.32 71.85 2.32Q72.86 2.32 73.56 1.66Q74.26 1.00 74.26-0.10Q74.26-1.19 73.56-1.85Q72.86-2.52 71.85-2.52Q70.84-2.52 70.14-1.85ZM74.92-0.10L74.92-0.10Q74.92 1.22 74.04 2.05Q73.17 2.89 71.85 2.89L71.85 2.89Q70.53 2.89 69.65 2.06Q68.78 1.23 68.78-0.10L68.78-0.10Q68.78-1.41 69.66-2.25Q70.53-3.08 71.85-3.08L71.85-3.08Q73.17-3.08 74.05-2.25Q74.92-1.42 74.92-0.10Z"/><path fill="#ffffff" opacity="1" d="M77.88 2.77L77.88-2.97L80.13-2.97Q81.00-2.97 81.54-2.54Q82.09-2.11 82.09-1.38L82.09-1.38Q82.09-0.87 81.74-0.46Q81.39-0.04 80.75 0.12L80.75 0.12L82.49 2.77L81.69 2.77L80.08 0.24L78.54 0.24L78.54 2.77L77.88 2.77ZM80.00-2.40L78.54-2.40L78.54-0.33L80.01-0.33Q80.65-0.33 81.03-0.60Q81.42-0.87 81.42-1.38L81.42-1.38Q81.42-2.40 80.00-2.40L80.00-2.40Z"/><path fill="#ffffff" opacity="1" d="M85.36 2.77L85.36-2.97L86.28-2.97L88.14-0.21L90.02-2.97L90.93-2.97L90.93 2.77L90.27 2.77L90.27-0.48L90.29-2.24L90.21-2.24L88.24 0.64L88.00 0.64L86.07-2.24L86.00-2.24L86.01-0.48L86.01 2.77L85.36 2.77Z"/><path fill="#ffffff" opacity="1" d="M93.75 2.77L96.23-2.97L97.01-2.97L99.48 2.77L98.78 2.77L97.96 0.84L95.23 0.84L94.43 2.77L93.75 2.77ZM96.67-2.29L96.54-2.29L95.46 0.29L97.73 0.29L96.67-2.29ZM96.94-3.46L96.44-3.46L97.19-4.97L97.74-4.64L96.94-3.46Z"/><path fill="#ffffff" opacity="1" d="M103.41-2.40L101.65-2.40L101.65-2.97L105.84-2.97L105.84-2.40L104.07-2.40L104.07 2.77L103.41 2.77L103.41-2.40Z"/><path fill="#ffffff" opacity="1" d="M108.80 2.77L108.80-2.97L109.46-2.97L109.46 2.77L108.80 2.77Z"/><path fill="#ffffff" opacity="1" d="M117.47-2.50L117.47-2.50L117.20-1.97Q116.39-2.52 115.50-2.52L115.50-2.52Q114.44-2.52 113.76-1.84Q113.08-1.16 113.08-0.10L113.08-0.10Q113.08 1.02 113.76 1.65Q114.43 2.28 115.49 2.28L115.49 2.28Q116.05 2.28 116.44 2.17Q116.84 2.06 117.29 1.77L117.29 1.77L117.48 2.35Q116.65 2.89 115.40 2.89L115.40 2.89Q114.81 2.89 114.29 2.71Q113.76 2.53 113.34 2.17Q112.91 1.81 112.67 1.22Q112.42 0.64 112.42-0.10L112.42-0.10Q112.42-1.41 113.32-2.25Q114.21-3.08 115.50-3.08L115.50-3.08Q116.66-3.08 117.47-2.50Z"/><path fill="#ffffff" opacity="1" d="M121.45-1.85Q120.75-1.19 120.75-0.10Q120.75 1.00 121.45 1.66Q122.15 2.32 123.16 2.32Q124.17 2.32 124.87 1.66Q125.57 1.00 125.57-0.10Q125.57-1.19 124.87-1.85Q124.17-2.52 123.16-2.52Q122.15-2.52 121.45-1.85ZM126.23-0.10L126.23-0.10Q126.23 1.22 125.35 2.05Q124.47 2.89 123.16 2.89L123.16 2.89Q121.83 2.89 120.96 2.06Q120.09 1.23 120.09-0.10L120.09-0.10Q120.09-1.41 120.96-2.25Q121.84-3.08 123.16-3.08L123.16-3.08Q124.48-3.08 125.36-2.25Q126.23-1.42 126.23-0.10Z"/><path fill="#ffffff" opacity="1" d="M132.76-2.61L132.76-2.61L132.48-2.09Q131.79-2.52 130.96-2.52L130.96-2.52Q130.34-2.52 130.04-2.25Q129.74-1.98 129.74-1.61L129.74-1.61Q129.74-1.24 129.98-1.01Q130.21-0.78 130.74-0.68L130.74-0.68L131.58-0.50Q133.10-0.18 133.10 1.19L133.10 1.19Q133.10 1.92 132.53 2.40Q131.96 2.89 130.90 2.89L130.90 2.89Q130.29 2.89 129.86 2.78Q129.42 2.68 128.93 2.42L128.93 2.42L129.16 1.82Q130.00 2.31 130.89 2.31L130.89 2.31Q131.70 2.31 132.07 2.00Q132.45 1.70 132.45 1.20L132.45 1.20Q132.45 0.72 132.18 0.46Q131.92 0.20 131.29 0.06L131.29 0.06L130.36-0.13Q129.80-0.25 129.46-0.62Q129.11-0.99 129.11-1.57L129.11-1.57Q129.11-2.24 129.60-2.66Q130.09-3.08 130.96-3.08L130.96-3.08Q132.00-3.08 132.76-2.61Z"/></g><g transform="matrix(1 0 0 1 250.99999219731416 337.1784674149661)" style=""  ><path fill="#ffffff" opacity="1" d="M-55.35 2.23L-55.35-1.49L-40.57-1.49L-40.57 15.03Q-46.94 19.66-56.43 19.66L-56.43 19.66Q-61.90 19.66-66.38 17.38Q-70.86 15.09-73.68 10.41Q-76.51 5.72-76.51-0.65L-76.51-0.65Q-76.51-9.55-70.50-15.26Q-64.49-20.97-55.77-20.97L-55.77-20.97Q-47.42-20.97-41.35-17.00L-41.35-17.00L-43.27-13.45Q-48.62-17.12-55.77-17.12L-55.77-17.12Q-63.11-17.12-67.55-12.49Q-72.00-7.86-72.00-0.65L-72.00-0.65Q-72.00 6.74-67.37 11.25Q-62.74 15.75-55.83 15.75L-55.83 15.75Q-49.58 15.75-44.83 12.99L-44.83 12.99L-44.83 2.23L-55.35 2.23Z"/><path fill="#ffffff" opacity="1" d="M-23.50 18.88L-23.50-20.19L-9.26-20.19Q0.84-20.19 6.34-15.14Q11.84-10.09 11.84-0.89L11.84-0.89Q11.84 8.54 5.80 13.71Q-0.24 18.88-10.52 18.88L-10.52 18.88L-23.50 18.88ZM-9.26-16.34L-18.99-16.34L-18.99 14.97L-10.52 14.97Q-2.46 14.97 2.40 11.07Q7.27 7.16 7.27-0.89L7.27-0.89Q7.27-16.34-9.26-16.34L-9.26-16.34Z"/><path fill="#ffffff" opacity="1" d="M51.99-17.78L51.99-17.78L50.06-14.24Q45.38-17.18 39.73-17.18L39.73-17.18Q35.52-17.18 33.48-15.32Q31.43-13.45 31.43-10.93L31.43-10.93Q31.43-8.47 33.06-6.90Q34.68-5.34 38.28-4.62L38.28-4.62L43.99-3.42Q54.33-1.25 54.33 8.12L54.33 8.12Q54.33 13.05 50.45 16.36Q46.58 19.66 39.37 19.66L39.37 19.66Q35.22 19.66 32.24 18.94Q29.27 18.22 25.90 16.48L25.90 16.48L27.47 12.39Q33.24 15.69 39.25 15.69L39.25 15.69Q44.77 15.69 47.33 13.62Q49.88 11.55 49.88 8.18L49.88 8.18Q49.88 4.88 48.08 3.10Q46.28 1.33 42.01 0.43L42.01 0.43L35.70-0.89Q31.85-1.67 29.51-4.20Q27.17-6.72 27.17-10.69L27.17-10.69Q27.17-15.26 30.50-18.11Q33.84-20.97 39.73-20.97L39.73-20.97Q46.82-20.97 51.99-17.78Z"/><path fill="#ffffff" opacity="1" d="M70.50 18.88L70.50-20.19L75.00-20.19L75.00 18.88L70.50 18.88Z"/></g><g transform="matrix(1.5576344535505071 0 0 1.5576344535505071 250.5 209.46876708071292)"  >
<circle style="stroke: none; stroke-width: 0; stroke-dasharray: none; stroke-linecap: butt; stroke-dashoffset: 0; stroke-linejoin: miter; stroke-miterlimit: 4; fill: rgb(241,243,243); fill-rule: evenodd; opacity: 1;"  cx="0" cy="0" r="47.0059" />
</g>
<g transform="matrix(0.9543601872029955 0 0 0.9543601872029955 250.5 209.46876708071292)"  >
<g style=""   >
		<g transform="matrix(1 0 0 1 -32.148161275 0.5001921624999994)"  >
<path style="stroke: none; stroke-width: 1; stroke-dasharray: none; stroke-linecap: butt; stroke-dashoffset: 0; stroke-linejoin: miter; stroke-miterlimit: 4; fill: rgb(55,65,64); fill-rule: nonzero; opacity: 1;"  transform=" translate(-17.351838725, -50.0001921625)" d="M 31.6036053 33.7983513 l -0.0006542 -0.0004349 l -5.4003315 -5.4003334 c -0.8000984 -0.8000984 -2.1005287 -0.8000984 -2.8999729 0 L 3.1000729 48.5000877 c -0.8000975 0.8003159 -0.8000975 2.10075 0 2.9001923 l 20.2025738 20.2023582 c 0.8003159 0.8003159 2.1007462 0.8003159 2.8999729 0 l 5.4003315 -5.4003372 c 0.8003159 -0.8000946 0.8003159 -2.1005249 0 -2.899971 L 18.3019276 50 l 13.3016777 -13.3016777 C 32.4037018 35.8982239 32.4037018 34.5984497 31.6036053 33.7983513 z" stroke-linecap="round" />
</g>
		<g transform="matrix(1 0 0 1 33.153818347046496 0.49967385000000775)"  >
<path style="stroke: none; stroke-width: 1; stroke-dasharray: none; stroke-linecap: butt; stroke-dashoffset: 0; stroke-linejoin: miter; stroke-miterlimit: 4; fill: rgb(55,65,64); fill-rule: nonzero; opacity: 1;"  transform=" translate(-82.6538183470465, -49.99967385000001)" d="M 96.9111938 48.4998703 L 76.7086182 28.3973656 c -0.8001022 -0.8003159 -2.1005325 -0.8003159 -2.899971 0 l -5.4003372 5.4003296 c -0.8000946 0.8000984 -0.8000946 2.1005287 0 2.8999748 L 81.7095566 50 L 68.4078751 63.3016777 c -0.8003159 0.8000984 -0.8003159 2.1005287 0 2.8999748 l 5.4003296 5.4003296 c 0.8001022 0.8003159 2.1005325 0.8003159 2.8999786 0 l 20.1025009 -20.2025757 c 0.901474 -0.6989403 0.901474 -2.0998726 0.1011581 -2.8993187 L 96.9111938 48.4998703 z" stroke-linecap="round" />
</g>
		<g transform="matrix(1 0 0 1 0.5346657233478993 0.500000049999997)"  >
<path style="stroke: none; stroke-width: 1; stroke-dasharray: none; stroke-linecap: butt; stroke-dashoffset: 0; stroke-linejoin: miter; stroke-miterlimit: 4; fill: rgb(55,65,64); fill-rule: nonzero; opacity: 1;"  transform=" translate(-50.0346657233479, -50.00000005)" d="M 60.9065781 25.4969559 h -6.5004082 c -0.8999481 0 -1.7000465 0.5999641 -2.0000267 1.4000626 l -15.3019218 44.805687 c -0.5001144 1.4000549 0.5003319 2.8003387 2.0000267 2.8003387 h 6.5006294 c 0.8999443 0 1.7000427 -0.599968 2.0000267 -1.4000626 l 15.4015503 -44.8056831 C 63.4069405 26.8970184 62.4071426 25.4969559 60.9065781 25.4969559 z" stroke-linecap="round" />
</g>
</g>
</g>
</svg>