<?xml version="1.0" encoding="UTF-8" standalone="no" ?>
<!DOCTYPE svg PUBLIC "-//W3C//DTD SVG 1.1//EN" "http://www.w3.org/Graphics/SVG/1.1/DTD/svg11.dtd">
<svg xmlns="http://www.w3.org/2000/svg" xmlns:xlink="http://www.w3.org/1999/xlink" version="1.1" width="500" height="500" viewBox="0 0 500 500" xml:space="preserve">
<desc>Created with Fabric.js 3.6.3</desc>
<defs>
</defs>
<rect x="0" y="0" width="100%" height="100%" fill="#F1F3F3"></rect>
<g transform="matrix(1.5267707692954429 0 0 1.5267707692954429 250 250)"  >
<g style=""   >
		<g transform="matrix(1 0 0 1 -1.5 0.8999999999999986)"  >
<circle style="stroke: none; stroke-width: 1; stroke-dasharray: none; stroke-linecap: butt; stroke-dashoffset: 0; stroke-linejoin: miter; stroke-miterlimit: 4; fill: rgb(26,109,175); fill-rule: nonzero; opacity: 1;"  cx="0" cy="0" r="55.6" />
</g>
		<g transform="matrix(1 0 0 1 -12.200000000000003 48.05)"  >
<line style="stroke: rgb(253,205,18); stroke-width: 2; stroke-dasharray: none; stroke-linecap: round; stroke-dashoffset: 0; stroke-linejoin: round; stroke-miterlimit: 10; fill: none; fill-rule: nonzero; opacity: 1;"  x1="-10.700000000000003" y1="9.550000000000004" x2="10.700000000000003" y2="-9.550000000000004" />
</g>
		<g transform="matrix(1 0 0 1 3.899999999999988 -48.650000000000006)"  >
<line style="stroke: rgb(253,205,18); stroke-width: 2; stroke-dasharray: none; stroke-linecap: round; stroke-dashoffset: 0; stroke-linejoin: round; stroke-miterlimit: 10; fill: none; fill-rule: nonzero; opacity: 1;"  x1="-11.2" y1="8.95" x2="11.2" y2="-8.95" />
</g>
		<g transform="matrix(1 0 0 1 46.45 3.949999999999992)"  >
<line style="stroke: rgb(253,205,18); stroke-width: 2; stroke-dasharray: none; stroke-linecap: round; stroke-dashoffset: 0; stroke-linejoin: round; stroke-miterlimit: 10; fill: none; fill-rule: nonzero; opacity: 1;"  x1="-11.25" y1="8.95" x2="11.25" y2="-8.95" />
</g>
		<g transform="matrix(1 0 0 1 45.55 -13.25)"  >
<line style="stroke: rgb(244,94,172); stroke-width: 2; stroke-dasharray: none; stroke-linecap: round; stroke-dashoffset: 0; stroke-linejoin: round; stroke-miterlimit: 10; fill: none; fill-rule: nonzero; opacity: 1;"  x1="-9.950000000000003" y1="8.850000000000001" x2="9.950000000000003" y2="-8.850000000000001" />
</g>
		<g transform="matrix(1 0 0 1 -37.45 43.849999999999994)"  >
<line style="stroke: rgb(26,109,175); stroke-width: 2; stroke-dasharray: none; stroke-linecap: round; stroke-dashoffset: 0; stroke-linejoin: round; stroke-miterlimit: 10; fill: none; fill-rule: nonzero; opacity: 1;"  x1="-9.95" y1="8.850000000000001" x2="9.95" y2="-8.850000000000001" />
</g>
		<g transform="matrix(1 0 0 1 -47.400000000000006 11.800000000000008)"  >
<line style="stroke: rgb(244,94,172); stroke-width: 2; stroke-dasharray: none; stroke-linecap: round; stroke-dashoffset: 0; stroke-linejoin: round; stroke-miterlimit: 10; fill: none; fill-rule: nonzero; opacity: 1;"  x1="-10.3" y1="8.500000000000004" x2="10.3" y2="-8.500000000000004" />
</g>
		<g transform="matrix(1 0 0 1 27.45000000000001 -44.150000000000006)"  >
<line style="stroke: rgb(244,94,172); stroke-width: 2; stroke-dasharray: none; stroke-linecap: round; stroke-dashoffset: 0; stroke-linejoin: round; stroke-miterlimit: 10; fill: none; fill-rule: nonzero; opacity: 1;"  x1="-10.449999999999996" y1="8.25" x2="10.449999999999996" y2="-8.25" />
</g>
		<g transform="matrix(1 0 0 1 -44 -33.300000000000004)"  >
<line style="stroke: rgb(244,94,172); stroke-width: 2; stroke-dasharray: none; stroke-linecap: round; stroke-dashoffset: 0; stroke-linejoin: round; stroke-miterlimit: 10; fill: none; fill-rule: nonzero; opacity: 1;"  x1="-10.2" y1="8.6" x2="10.2" y2="-8.6" />
</g>
		<g transform="matrix(1 0 0 1 -34.7 14.550000000000008)"  >
<line style="stroke: rgb(37,171,190); stroke-width: 2; stroke-dasharray: none; stroke-linecap: round; stroke-dashoffset: 0; stroke-linejoin: round; stroke-miterlimit: 10; fill: none; fill-rule: nonzero; opacity: 1;"  x1="-20.6" y1="18.05" x2="20.6" y2="-18.05" />
</g>
		<g transform="matrix(1 0 0 1 36.74999999999998 31.049999999999997)"  >
<line style="stroke: rgb(37,171,190); stroke-width: 2; stroke-dasharray: none; stroke-linecap: round; stroke-dashoffset: 0; stroke-linejoin: round; stroke-miterlimit: 10; fill: none; fill-rule: nonzero; opacity: 1;"  x1="-20.65" y1="18.050000000000004" x2="20.65" y2="-18.050000000000004" />
</g>
		<g transform="matrix(1 0 0 1 26.85000000000001 33.749999999999986)"  >
<path style="stroke: none; stroke-width: 1; stroke-dasharray: none; stroke-linecap: butt; stroke-dashoffset: 0; stroke-linejoin: miter; stroke-miterlimit: 4; fill: rgb(37,171,190); fill-rule: nonzero; opacity: 1;"  transform=" translate(-85.55000000000001, -92.35)" d="M 111.9 69.7 L 59.2 115 C 85.5 114.1 107.2 94.9 111.9 69.7 z" stroke-linecap="round" />
</g>
		<g transform="matrix(1 0 0 1 21.450000000000003 27.9)"  >
<path style="stroke: none; stroke-width: 1; stroke-dasharray: none; stroke-linecap: butt; stroke-dashoffset: 0; stroke-linejoin: miter; stroke-miterlimit: 4; fill: rgb(26,109,175); fill-rule: nonzero; opacity: 1;"  transform=" translate(-80.15, -86.5)" d="M 112.8 57.8 l -65.3 56.5 c 3.2 0.6 6.4 0.9 9.7 0.9 c 0.7 0 1.3 0 2 -0.1 l 52.6 -45.3 c 0.6 -3.3 1 -6.8 1 -10.3 C 112.8 58.9 112.8 58.3 112.8 57.8 z" stroke-linecap="round" />
</g>
		<g transform="matrix(1 0 0 1 17.10000000000001 21.70000000000001)"  >
<path style="stroke: none; stroke-width: 1; stroke-dasharray: none; stroke-linecap: butt; stroke-dashoffset: 0; stroke-linejoin: miter; stroke-miterlimit: 4; fill: rgb(253,205,18); fill-rule: nonzero; opacity: 1;"  transform=" translate(-75.80000000000001, -80.30000000000001)" d="M 38.9 112 c 3 1 6.1 1.8 9.3 2.4 l 64.5 -56.5 c -0.1 -4 -0.7 -7.9 -1.6 -11.7 L 38.9 112 z" stroke-linecap="round" />
</g>
		<g transform="matrix(1 0 0 1 8.849999999999994 12.999999999999993)"  >
<path style="stroke: none; stroke-width: 1; stroke-dasharray: none; stroke-linecap: butt; stroke-dashoffset: 0; stroke-linejoin: miter; stroke-miterlimit: 4; fill: rgb(244,94,172); fill-rule: nonzero; opacity: 1;"  transform=" translate(-67.55, -71.6)" d="M 105.1 31.2 L 24 104.1 c 4.5 3.4 9.5 6 14.9 7.9 l 72.2 -65.9 C 109.9 40.8 107.8 35.8 105.1 31.2 z" stroke-linecap="round" />
</g>
		<g transform="matrix(1 0 0 1 -27.000000000000004 -32.150000000000006)"  >
<path style="stroke: none; stroke-width: 1; stroke-dasharray: none; stroke-linecap: butt; stroke-dashoffset: 0; stroke-linejoin: miter; stroke-miterlimit: 4; fill: rgb(244,94,172); fill-rule: nonzero; opacity: 1;"  transform=" translate(-31.7, -26.45)" d="M 57.2 3.9 C 30.1 3.9 7.5 23.3 2.6 49 L 60.8 4 C 59.6 3.9 58.4 3.9 57.2 3.9 z" stroke-linecap="round" />
</g>
		<g transform="matrix(1 0 0 1 -0.45000000000000284 4)"  >
<path style="stroke: none; stroke-width: 1; stroke-dasharray: none; stroke-linecap: butt; stroke-dashoffset: 0; stroke-linejoin: miter; stroke-miterlimit: 4; fill: rgb(26,109,175); fill-rule: nonzero; opacity: 1;"  transform=" translate(-58.25, -62.6)" d="M 97.2 20.9 l -85.9 70 c 3.5 5.2 7.9 9.7 13 13.4 l 80.9 -73 C 102.9 27.5 100.2 24 97.2 20.9 z" stroke-linecap="round" />
</g>
		<g transform="matrix(1 0 0 1 -15.949999999999996 -23.3)"  >
<path style="stroke: none; stroke-width: 1; stroke-dasharray: none; stroke-linecap: butt; stroke-dashoffset: 0; stroke-linejoin: miter; stroke-miterlimit: 4; fill: rgb(26,109,175); fill-rule: nonzero; opacity: 1;"  transform=" translate(-42.75000000000001, -35.3)" d="M 68.9 5.1 l -67.1 52 l -0.1 0.1 c 0 0.8 -0.1 1.5 -0.1 2.3 c 0 2 0.1 4.1 0.3 6 l 82 -54.8 C 79.3 8.1 74.2 6.2 68.9 5.1 z" stroke-linecap="round" />
</g>
		<g transform="matrix(1 0 0 1 -7.350000000000001 -6.000000000000007)"  >
<path style="stroke: none; stroke-width: 1; stroke-dasharray: none; stroke-linecap: butt; stroke-dashoffset: 0; stroke-linejoin: miter; stroke-miterlimit: 4; fill: rgb(37,171,190); fill-rule: nonzero; opacity: 1;"  transform=" translate(-51.35, -52.599999999999994)" d="M 89.8 14.4 L 5.5 80 c 1.5 3.8 3.5 7.5 5.8 10.8 l 85.9 -70 C 94.9 18.5 92.5 16.4 89.8 14.4 z" stroke-linecap="round" />
</g>
		<g transform="matrix(1 0 0 1 -12.850000000000001 -13.250000000000007)"  >
<path style="stroke: none; stroke-width: 1; stroke-dasharray: none; stroke-linecap: butt; stroke-dashoffset: 0; stroke-linejoin: miter; stroke-miterlimit: 4; fill: rgb(244,94,172); fill-rule: nonzero; opacity: 1;"  transform=" translate(-45.85, -45.349999999999994)" d="M 83.9 10.7 l -82 54.8 c 0.5 5.1 1.8 9.9 3.6 14.5 l 84.3 -65.6 C 87.9 13.1 86 11.8 83.9 10.7 z" stroke-linecap="round" />
</g>
		<g transform="matrix(1 0 0 1 -22.75 -27.150000000000002)"  >
<path style="stroke: none; stroke-width: 1; stroke-dasharray: none; stroke-linecap: butt; stroke-dashoffset: 0; stroke-linejoin: miter; stroke-miterlimit: 4; fill: rgb(253,205,18); fill-rule: nonzero; opacity: 1;"  transform=" translate(-35.95, -31.45)" d="M 60 3.9 l -55.3 37 c -2 5.7 -3.1 11.7 -3.2 18.1 L 70.4 5.4 C 67 4.6 63.6 4.1 60 3.9 z" stroke-linecap="round" />
</g>
</g>
</g>
<g transform="matrix(1.5576344535505071 0 0 1.5576344535505071 248 251)"  >
<circle style="stroke: none; stroke-width: 0; stroke-dasharray: none; stroke-linecap: butt; stroke-dashoffset: 0; stroke-linejoin: miter; stroke-miterlimit: 4; fill: rgb(241,243,243); fill-rule: evenodd; opacity: 1;"  cx="0" cy="0" r="47.0059" />
</g>
<g transform="matrix(0.9543601872029955 0 0 0.9543601872029955 248 251)"  >
<g style=""   >
		<g transform="matrix(1 0 0 1 -32.148161275 0.5001921624999994)"  >
<path style="stroke: none; stroke-width: 1; stroke-dasharray: none; stroke-linecap: butt; stroke-dashoffset: 0; stroke-linejoin: miter; stroke-miterlimit: 4; fill: rgb(55,65,64); fill-rule: nonzero; opacity: 1;"  transform=" translate(-17.351838725, -50.0001921625)" d="M 31.6036053 33.7983513 l -0.0006542 -0.0004349 l -5.4003315 -5.4003334 c -0.8000984 -0.8000984 -2.1005287 -0.8000984 -2.8999729 0 L 3.1000729 48.5000877 c -0.8000975 0.8003159 -0.8000975 2.10075 0 2.9001923 l 20.2025738 20.2023582 c 0.8003159 0.8003159 2.1007462 0.8003159 2.8999729 0 l 5.4003315 -5.4003372 c 0.8003159 -0.8000946 0.8003159 -2.1005249 0 -2.899971 L 18.3019276 50 l 13.3016777 -13.3016777 C 32.4037018 35.8982239 32.4037018 34.5984497 31.6036053 33.7983513 z" stroke-linecap="round" />
</g>
		<g transform="matrix(1 0 0 1 33.153818347046496 0.49967385000000775)"  >
<path style="stroke: none; stroke-width: 1; stroke-dasharray: none; stroke-linecap: butt; stroke-dashoffset: 0; stroke-linejoin: miter; stroke-miterlimit: 4; fill: rgb(55,65,64); fill-rule: nonzero; opacity: 1;"  transform=" translate(-82.6538183470465, -49.99967385000001)" d="M 96.9111938 48.4998703 L 76.7086182 28.3973656 c -0.8001022 -0.8003159 -2.1005325 -0.8003159 -2.899971 0 l -5.4003372 5.4003296 c -0.8000946 0.8000984 -0.8000946 2.1005287 0 2.8999748 L 81.7095566 50 L 68.4078751 63.3016777 c -0.8003159 0.8000984 -0.8003159 2.1005287 0 2.8999748 l 5.4003296 5.4003296 c 0.8001022 0.8003159 2.1005325 0.8003159 2.8999786 0 l 20.1025009 -20.2025757 c 0.901474 -0.6989403 0.901474 -2.0998726 0.1011581 -2.8993187 L 96.9111938 48.4998703 z" stroke-linecap="round" />
</g>
		<g transform="matrix(1 0 0 1 0.5346657233478993 0.500000049999997)"  >
<path style="stroke: none; stroke-width: 1; stroke-dasharray: none; stroke-linecap: butt; stroke-dashoffset: 0; stroke-linejoin: miter; stroke-miterlimit: 4; fill: rgb(55,65,64); fill-rule: nonzero; opacity: 1;"  transform=" translate(-50.0346657233479, -50.00000005)" d="M 60.9065781 25.4969559 h -6.5004082 c -0.8999481 0 -1.7000465 0.5999641 -2.0000267 1.4000626 l -15.3019218 44.805687 c -0.5001144 1.4000549 0.5003319 2.8003387 2.0000267 2.8003387 h 6.5006294 c 0.8999443 0 1.7000427 -0.599968 2.0000267 -1.4000626 l 15.4015503 -44.8056831 C 63.4069405 26.8970184 62.4071426 25.4969559 60.9065781 25.4969559 z" stroke-linecap="round" />
</g>
</g>
</g>
</svg>